P3
# 8-bit ppm - RGB
4 4
255
249 239 243 241  61  90 240   0   0 240   0   0
239 178 243 238  49  90 241  27   0 239   0   0
236 148 247 235  93 194 236  95 181 242 151 179
237 162 252 235 144 255 235 146 255 247 233 255
